<svg version="1.1" viewBox="0.0 0.0 602.2178477690288 100.0" fill="none" stroke="none" stroke-linecap="square" stroke-miterlimit="10" xmlns:xlink="http://www.w3.org/1999/xlink" xmlns="http://www.w3.org/2000/svg"><clipPath id="p.0"><path d="m0 0l602.21783 0l0 100.0l-602.21783 0l0 -100.0z" clip-rule="nonzero"/></clipPath><g clip-path="url(#p.0)"><path fill="#000000" fill-opacity="0.0" d="m0 0l602.21783 0l0 100.0l-602.21783 0z" fill-rule="evenodd"/><path fill="#000000" fill-opacity="0.0" d="m10.737533 39.71522l576.0 0" fill-rule="evenodd"/><path stroke="#000000" stroke-width="1.0" stroke-linejoin="round" stroke-linecap="butt" d="m10.737533 39.71522l576.0 0" fill-rule="evenodd"/><path fill="#000000" fill-opacity="0.0" d="m10.737533 39.71522l0 5.417324" fill-rule="evenodd"/><path stroke="#000000" stroke-width="1.0" stroke-linejoin="round" stroke-linecap="butt" d="m10.737533 39.71522l0 5.417324" fill-rule="evenodd"/><path fill="#000000" fill-opacity="0.0" d="m586.73755 39.71522l0 5.417324" fill-rule="evenodd"/><path stroke="#000000" stroke-width="1.0" stroke-linejoin="round" stroke-linecap="butt" d="m586.73755 39.71522l0 5.417324" fill-rule="evenodd"/><path fill="#000000" fill-opacity="0.0" d="m68.33753 39.71522l0 5.417324" fill-rule="evenodd"/><path stroke="#000000" stroke-width="1.0" stroke-linejoin="round" stroke-linecap="butt" d="m68.33753 39.71522l0 5.417324" fill-rule="evenodd"/><path fill="#000000" fill-opacity="0.0" d="m125.93753 39.71522l0 5.417324" fill-rule="evenodd"/><path stroke="#000000" stroke-width="1.0" stroke-linejoin="round" stroke-linecap="butt" d="m125.93753 39.71522l0 5.417324" fill-rule="evenodd"/><path fill="#000000" fill-opacity="0.0" d="m183.53754 39.71522l0 5.417324" fill-rule="evenodd"/><path stroke="#000000" stroke-width="1.0" stroke-linejoin="round" stroke-linecap="butt" d="m183.53754 39.71522l0 5.417324" fill-rule="evenodd"/><path fill="#000000" fill-opacity="0.0" d="m241.13753 39.71522l0 5.417324" fill-rule="evenodd"/><path stroke="#000000" stroke-width="1.0" stroke-linejoin="round" stroke-linecap="butt" d="m241.13753 39.71522l0 5.417324" fill-rule="evenodd"/><path fill="#000000" fill-opacity="0.0" d="m298.73752 39.71522l0 5.417324" fill-rule="evenodd"/><path stroke="#000000" stroke-width="1.0" stroke-linejoin="round" stroke-linecap="butt" d="m298.73752 39.71522l0 5.417324" fill-rule="evenodd"/><path fill="#000000" fill-opacity="0.0" d="m356.33752 39.71522l0 5.417324" fill-rule="evenodd"/><path stroke="#000000" stroke-width="1.0" stroke-linejoin="round" stroke-linecap="butt" d="m356.33752 39.71522l0 5.417324" fill-rule="evenodd"/><path fill="#000000" fill-opacity="0.0" d="m413.93753 39.71522l0 5.417324" fill-rule="evenodd"/><path stroke="#000000" stroke-width="1.0" stroke-linejoin="round" stroke-linecap="butt" d="m413.93753 39.71522l0 5.417324" fill-rule="evenodd"/><path fill="#000000" fill-opacity="0.0" d="m471.53754 39.71522l0 5.417324" fill-rule="evenodd"/><path stroke="#000000" stroke-width="1.0" stroke-linejoin="round" stroke-linecap="butt" d="m471.53754 39.71522l0 5.417324" fill-rule="evenodd"/><path fill="#000000" fill-opacity="0.0" d="m529.1375 39.71522l0 5.417324" fill-rule="evenodd"/><path stroke="#000000" stroke-width="1.0" stroke-linejoin="round" stroke-linecap="butt" d="m529.1375 39.71522l0 5.417324" fill-rule="evenodd"/><path fill="#000000" fill-opacity="0.0" d="m-10.916011 45.132545l43.307087 0l0 23.811028l-43.307087 0z" fill-rule="evenodd"/><path fill="#000000" d="m3.4742274 53.417946q0 -1.34375 0.28125 -2.171875q0.28125 -0.828125 0.828125 -1.265625q0.546875 -0.453125 1.375 -0.453125q0.625 0 1.078125 0.25q0.46875 0.234375 0.765625 0.703125q0.31249952 0.46875 0.48437452 1.140625q0.171875 0.671875 0.171875 1.796875q0 1.34375 -0.28125 2.171875q-0.28124952 0.828125 -0.8281245 1.28125q-0.546875 0.4375 -1.390625 0.4375q-1.09375 0 -1.71875 -0.78125q-0.765625 -0.953125 -0.765625 -3.109375zm0.96875 0q0 1.875 0.4375 2.5q0.4375 0.625 1.078125 0.625q0.65625 0 1.09375 -0.625q0.4375 -0.625 0.4375 -2.5q0 -1.875 -0.4375 -2.5q-0.4375 -0.625 -1.09375 -0.625q-0.640625 0 -1.03125 0.546875q-0.484375 0.703125 -0.484375 2.578125zm5.145248 -2.03125q0 -0.8125 0.40625 -1.390625q0.40625 -0.578125 1.1875 -0.578125q0.71875 0 1.1875 0.515625q0.46875 0.515625 0.46875 1.515625q0 0.96875 -0.484375 1.5q-0.46875 0.515625 -1.15625 0.515625q-0.6875 0 -1.15625 -0.515625q-0.453125 -0.515625 -0.453125 -1.5625zm1.625 -1.3125q-0.34375 0 -0.578125 0.296875q-0.234375 0.296875 -0.234375 1.109375q0 0.734375 0.234375 1.03125q0.234375 0.296875 0.578125 0.296875q0.359375 0 0.578125 -0.296875q0.234375 -0.296875 0.234375 -1.109375q0 -0.734375 -0.234375 -1.03125q-0.234375 -0.296875 -0.578125 -0.296875zm0 7.390625l4.171875 -8.046875l0.76562595 0l-4.156251 8.046875l-0.78125 0zm3.296875 -2.078125q0 -0.8125 0.40625 -1.375q0.421875 -0.578125 1.203126 -0.578125q0.71875 0 1.1875 0.515625q0.46875 0.515625 0.46875 1.5q0 0.96875 -0.46875 1.5q-0.46875 0.515625 -1.171875 0.515625q-0.70312595 0 -1.171876 -0.515625q-0.453125 -0.515625 -0.453125 -1.5625zm1.640626 -1.3125q-0.35937595 0 -0.59375095 0.3125q-0.21875 0.296875 -0.21875 1.09375q0 0.734375 0.234375 1.046875q0.234375 0.296875 0.57812595 0.296875q0.359375 0 0.578125 -0.296875q0.234375 -0.3125 0.234375 -1.109375q0 -0.75 -0.234375 -1.046875q-0.234375 -0.296875 -0.578125 -0.296875z" fill-rule="nonzero"/><path fill="#000000" fill-opacity="0.0" d="m47.1168 45.132545l43.307083 0l0 23.811028l-43.307083 0z" fill-rule="evenodd"/><path fill="#000000" d="m62.075035 57.18357l-0.9375 0l0 -5.96875q-0.34375 0.328125 -0.890625 0.65625q-0.546875 0.3125 -0.984375 0.46875l0 -0.90625q0.796875 -0.359375 1.375 -0.890625q0.59375 -0.53125 0.828125 -1.015625l0.609375 0l0 7.65625zm2.3952484 -3.765625q0 -1.34375 0.28125 -2.171875q0.28125 -0.828125 0.828125 -1.265625q0.546875 -0.453125 1.375 -0.453125q0.625 0 1.078125 0.25q0.46875 0.234375 0.765625 0.703125q0.3125 0.46875 0.484375 1.140625q0.171875 0.671875 0.171875 1.796875q0 1.34375 -0.28125 2.171875q-0.28125 0.828125 -0.828125 1.28125q-0.546875 0.4375 -1.390625 0.4375q-1.09375 0 -1.71875 -0.78125q-0.765625 -0.953125 -0.765625 -3.109375zm0.96875 0q0 1.875 0.4375 2.5q0.4375 0.625 1.078125 0.625q0.65625 0 1.09375 -0.625q0.4375 -0.625 0.4375 -2.5q0 -1.875 -0.4375 -2.5q-0.4375 -0.625 -1.09375 -0.625q-0.640625 0 -1.03125 0.546875q-0.484375 0.703125 -0.484375 2.578125zm5.1452484 -2.03125q0 -0.8125 0.40625 -1.390625q0.40625 -0.578125 1.1875 -0.578125q0.71875 0 1.1875 0.515625q0.46875 0.515625 0.46875 1.515625q0 0.96875 -0.484375 1.5q-0.46875 0.515625 -1.15625 0.515625q-0.6875 0 -1.15625 -0.515625q-0.453125 -0.515625 -0.453125 -1.5625zm1.625 -1.3125q-0.34375 0 -0.578125 0.296875q-0.234375 0.296875 -0.234375 1.109375q0 0.734375 0.234375 1.03125q0.234375 0.296875 0.578125 0.296875q0.359375 0 0.578125 -0.296875q0.234375 -0.296875 0.234375 -1.109375q0 -0.734375 -0.234375 -1.03125q-0.234375 -0.296875 -0.578125 -0.296875zm0 7.390625l4.171875 -8.046875l0.765625 0l-4.15625 8.046875l-0.78125 0zm3.296875 -2.078125q0 -0.8125 0.40625 -1.375q0.421875 -0.578125 1.203125 -0.578125q0.71875 0 1.1875 0.515625q0.46875 0.515625 0.46875 1.5q0 0.96875 -0.46875 1.5q-0.46875 0.515625 -1.171875 0.515625q-0.703125 0 -1.171875 -0.515625q-0.453125 -0.515625 -0.453125 -1.5625zm1.640625 -1.3125q-0.359375 0 -0.59375 0.3125q-0.21875 0.296875 -0.21875 1.09375q0 0.734375 0.234375 1.046875q0.234375 0.296875 0.578125 0.296875q0.359375 0 0.578125 -0.296875q0.234375 -0.3125 0.234375 -1.109375q0 -0.75 -0.234375 -1.046875q-0.234375 -0.296875 -0.578125 -0.296875z" fill-rule="nonzero"/><path fill="#000000" fill-opacity="0.0" d="m105.149605 45.132545l43.30709 0l0 23.811028l-43.30709 0z" fill-rule="evenodd"/><path fill="#000000" d="m121.49847 56.27732l0 0.90625l-5.03125 0q-0.015625 -0.34375 0.109375 -0.65625q0.1875 -0.515625 0.609375 -1.015625q0.421875 -0.5 1.234375 -1.140625q1.234375 -1.03125 1.671875 -1.625q0.4375 -0.59375 0.4375 -1.125q0 -0.5625 -0.40625 -0.9375q-0.390625 -0.390625 -1.03125 -0.390625q-0.671875 0 -1.078125 0.40625q-0.40625 0.40625 -0.40625 1.125l-0.96875 -0.09375q0.09375 -1.078125 0.734375 -1.640625q0.65625 -0.5625 1.734375 -0.5625q1.109375 0 1.75 0.609375q0.640625 0.609375 0.640625 1.5q0 0.46875 -0.1875 0.90625q-0.1875 0.4375 -0.625 0.9375q-0.4375 0.484375 -1.453125 1.328125q-0.828125 0.71875 -1.078125 0.96875q-0.234375 0.25 -0.390625 0.5l3.734375 0zm1.0046234 -2.859375q0 -1.34375 0.28125 -2.171875q0.28125 -0.828125 0.828125 -1.265625q0.546875 -0.453125 1.375 -0.453125q0.625 0 1.078125 0.25q0.46875 0.234375 0.765625 0.703125q0.3125 0.46875 0.484375 1.140625q0.171875 0.671875 0.171875 1.796875q0 1.34375 -0.28125 2.171875q-0.28125 0.828125 -0.828125 1.28125q-0.546875 0.4375 -1.390625 0.4375q-1.09375 0 -1.71875 -0.78125q-0.765625 -0.953125 -0.765625 -3.109375zm0.96875 0q0 1.875 0.4375 2.5q0.4375 0.625 1.078125 0.625q0.65625 0 1.09375 -0.625q0.4375 -0.625 0.4375 -2.5q0 -1.875 -0.4375 -2.5q-0.4375 -0.625 -1.09375 -0.625q-0.640625 0 -1.03125 0.546875q-0.484375 0.703125 -0.484375 2.578125zm5.145256 -2.03125q0 -0.8125 0.40625 -1.390625q0.40625 -0.578125 1.1875 -0.578125q0.71875 0 1.1875 0.515625q0.46875 0.515625 0.46875 1.515625q0 0.96875 -0.484375 1.5q-0.46875 0.515625 -1.15625 0.515625q-0.6875 0 -1.15625 -0.515625q-0.453125 -0.515625 -0.453125 -1.5625zm1.625 -1.3125q-0.34375 0 -0.578125 0.296875q-0.234375 0.296875 -0.234375 1.109375q0 0.734375 0.234375 1.03125q0.234375 0.296875 0.578125 0.296875q0.359375 0 0.578125 -0.296875q0.234375 -0.296875 0.234375 -1.109375q0 -0.734375 -0.234375 -1.03125q-0.234375 -0.296875 -0.578125 -0.296875zm0 7.390625l4.171875 -8.046875l0.765625 0l-4.15625 8.046875l-0.78125 0zm3.296875 -2.078125q0 -0.8125 0.40625 -1.375q0.421875 -0.578125 1.203125 -0.578125q0.71875 0 1.1875 0.515625q0.46875 0.515625 0.46875 1.5q0 0.96875 -0.46875 1.5q-0.46875 0.515625 -1.171875 0.515625q-0.703125 0 -1.171875 -0.515625q-0.453125 -0.515625 -0.453125 -1.5625zm1.640625 -1.3125q-0.359375 0 -0.59375 0.3125q-0.21875 0.296875 -0.21875 1.09375q0 0.734375 0.234375 1.046875q0.234375 0.296875 0.578125 0.296875q0.359375 0 0.578125 -0.296875q0.234375 -0.3125 0.234375 -1.109375q0 -0.75 -0.234375 -1.046875q-0.234375 -0.296875 -0.578125 -0.296875z" fill-rule="nonzero"/><path fill="#000000" fill-opacity="0.0" d="m163.18242 45.132545l43.307083 0l0 23.811028l-43.307083 0z" fill-rule="evenodd"/><path fill="#000000" d="m174.62503 55.167946l0.9375 -0.125q0.15625 0.796875 0.546875 1.15625q0.390625 0.34375 0.9375 0.34375q0.65625 0 1.109375 -0.453125q0.46875 -0.46875 0.46875 -1.140625q0 -0.640625 -0.421875 -1.0625q-0.421875 -0.421875 -1.078125 -0.421875q-0.265625 0 -0.65625 0.109375l0.109375 -0.828125q0.09375 0.015625 0.140625 0.015625q0.59375 0 1.078125 -0.3125q0.484375 -0.3125 0.484375 -0.96875q0 -0.515625 -0.359375 -0.84375q-0.34375 -0.34375 -0.890625 -0.34375q-0.546875 0 -0.921875 0.34375q-0.359375 0.34375 -0.453125 1.03125l-0.9375 -0.171875q0.171875 -0.9375 0.78125 -1.453125q0.609375 -0.515625 1.5 -0.515625q0.625 0 1.15625 0.265625q0.53125 0.265625 0.796875 0.734375q0.28125 0.453125 0.28125 0.984375q0 0.484375 -0.265625 0.890625q-0.265625 0.40625 -0.78125 0.65625q0.671875 0.15625 1.046875 0.65625q0.375 0.484375 0.375 1.21875q0 1.0 -0.734375 1.703125q-0.71875 0.6875 -1.828125 0.6875q-1.0 0 -1.671875 -0.59375q-0.65625 -0.609375 -0.75 -1.5625zm5.9108734 -1.75q0 -1.34375 0.28125 -2.171875q0.28125 -0.828125 0.828125 -1.265625q0.546875 -0.453125 1.375 -0.453125q0.625 0 1.078125 0.25q0.46875 0.234375 0.765625 0.703125q0.3125 0.46875 0.484375 1.140625q0.171875 0.671875 0.171875 1.796875q0 1.34375 -0.28125 2.171875q-0.28125 0.828125 -0.828125 1.28125q-0.546875 0.4375 -1.390625 0.4375q-1.09375 0 -1.71875 -0.78125q-0.765625 -0.953125 -0.765625 -3.109375zm0.96875 0q0 1.875 0.4375 2.5q0.4375 0.625 1.078125 0.625q0.65625 0 1.09375 -0.625q0.4375 -0.625 0.4375 -2.5q0 -1.875 -0.4375 -2.5q-0.4375 -0.625 -1.09375 -0.625q-0.640625 0 -1.03125 0.546875q-0.484375 0.703125 -0.484375 2.578125zm5.1452484 -2.03125q0 -0.8125 0.40625 -1.390625q0.40625 -0.578125 1.1875 -0.578125q0.71875 0 1.1875 0.515625q0.46875 0.515625 0.46875 1.515625q0 0.96875 -0.484375 1.5q-0.46875 0.515625 -1.15625 0.515625q-0.6875 0 -1.15625 -0.515625q-0.453125 -0.515625 -0.453125 -1.5625zm1.625 -1.3125q-0.34375 0 -0.578125 0.296875q-0.234375 0.296875 -0.234375 1.109375q0 0.734375 0.234375 1.03125q0.234375 0.296875 0.578125 0.296875q0.359375 0 0.578125 -0.296875q0.234375 -0.296875 0.234375 -1.109375q0 -0.734375 -0.234375 -1.03125q-0.234375 -0.296875 -0.578125 -0.296875zm0 7.390625l4.171875 -8.046875l0.765625 0l-4.15625 8.046875l-0.78125 0zm3.296875 -2.078125q0 -0.8125 0.40625 -1.375q0.421875 -0.578125 1.203125 -0.578125q0.71875 0 1.1875 0.515625q0.46875 0.515625 0.46875 1.5q0 0.96875 -0.46875 1.5q-0.46875 0.515625 -1.171875 0.515625q-0.703125 0 -1.171875 -0.515625q-0.453125 -0.515625 -0.453125 -1.5625zm1.640625 -1.3125q-0.359375 0 -0.59375 0.3125q-0.21875 0.296875 -0.21875 1.09375q0 0.734375 0.234375 1.046875q0.234375 0.296875 0.578125 0.296875q0.359375 0 0.578125 -0.296875q0.234375 -0.3125 0.234375 -1.109375q0 -0.75 -0.234375 -1.046875q-0.234375 -0.296875 -0.578125 -0.296875z" fill-rule="nonzero"/><path fill="#000000" fill-opacity="0.0" d="m221.21523 45.132545l43.307083 0l0 23.811028l-43.307083 0z" fill-rule="evenodd"/><path fill="#000000" d="m235.64221 57.18357l0 -1.828125l-3.296875 0l0 -0.859375l3.46875 -4.9375l0.765625 0l0 4.9375l1.03125 0l0 0.859375l-1.03125 0l0 1.828125l-0.9375 0zm0 -2.6875l0 -3.4375l-2.375 3.4375l2.375 0zm2.9264984 -1.078125q0 -1.34375 0.28125 -2.171875q0.28125 -0.828125 0.828125 -1.265625q0.546875 -0.453125 1.375 -0.453125q0.625 0 1.078125 0.25q0.46875 0.234375 0.765625 0.703125q0.3125 0.46875 0.484375 1.140625q0.171875 0.671875 0.171875 1.796875q0 1.34375 -0.28125 2.171875q-0.28125 0.828125 -0.828125 1.28125q-0.546875 0.4375 -1.390625 0.4375q-1.09375 0 -1.71875 -0.78125q-0.765625 -0.953125 -0.765625 -3.109375zm0.96875 0q0 1.875 0.4375 2.5q0.4375 0.625 1.078125 0.625q0.65625 0 1.09375 -0.625q0.4375 -0.625 0.4375 -2.5q0 -1.875 -0.4375 -2.5q-0.4375 -0.625 -1.09375 -0.625q-0.640625 0 -1.03125 0.546875q-0.484375 0.703125 -0.484375 2.578125zm5.1452484 -2.03125q0 -0.8125 0.40625 -1.390625q0.40625 -0.578125 1.1875 -0.578125q0.71875 0 1.1875 0.515625q0.46875 0.515625 0.46875 1.515625q0 0.96875 -0.484375 1.5q-0.46875 0.515625 -1.15625 0.515625q-0.6875 0 -1.15625 -0.515625q-0.453125 -0.515625 -0.453125 -1.5625zm1.625 -1.3125q-0.34375 0 -0.578125 0.296875q-0.234375 0.296875 -0.234375 1.109375q0 0.734375 0.234375 1.03125q0.234375 0.296875 0.578125 0.296875q0.359375 0 0.578125 -0.296875q0.234375 -0.296875 0.234375 -1.109375q0 -0.734375 -0.234375 -1.03125q-0.234375 -0.296875 -0.578125 -0.296875zm0 7.390625l4.171875 -8.046875l0.765625 0l-4.15625 8.046875l-0.78125 0zm3.296875 -2.078125q0 -0.8125 0.40625 -1.375q0.421875 -0.578125 1.203125 -0.578125q0.71875 0 1.1875 0.515625q0.46875 0.515625 0.46875 1.5q0 0.96875 -0.46875 1.5q-0.46875 0.515625 -1.171875 0.515625q-0.703125 0 -1.171875 -0.515625q-0.453125 -0.515625 -0.453125 -1.5625zm1.640625 -1.3125q-0.359375 0 -0.59375 0.3125q-0.21875 0.296875 -0.21875 1.09375q0 0.734375 0.234375 1.046875q0.234375 0.296875 0.578125 0.296875q0.359375 0 0.578125 -0.296875q0.234375 -0.3125 0.234375 -1.109375q0 -0.75 -0.234375 -1.046875q-0.234375 -0.296875 -0.578125 -0.296875z" fill-rule="nonzero"/><path fill="#000000" fill-opacity="0.0" d="m279.24802 45.132545l43.3071 0l0 23.811028l-43.3071 0z" fill-rule="evenodd"/><path fill="#000000" d="m290.67502 55.18357l0.984375 -0.078125q0.109375 0.71875 0.5 1.078125q0.40625 0.359375 0.96875 0.359375q0.671875 0 1.140625 -0.5q0.46875 -0.515625 0.46875 -1.359375q0 -0.796875 -0.453125 -1.265625q-0.4375 -0.46875 -1.171875 -0.46875q-0.453125 0 -0.8125 0.21875q-0.359375 0.203125 -0.578125 0.53125l-0.875 -0.125l0.734375 -3.921875l3.796875 0l0 0.90625l-3.046875 0l-0.40625 2.046875q0.6875 -0.484375 1.4375 -0.484375q1.0 0 1.6875 0.703125q0.6875 0.6875 0.6875 1.765625q0 1.046875 -0.609375 1.796875q-0.734375 0.921875 -2.0 0.921875q-1.03125 0 -1.703125 -0.578125q-0.65625 -0.578125 -0.75 -1.546875zm5.9265137 -1.765625q0 -1.34375 0.28125 -2.171875q0.28125 -0.828125 0.828125 -1.265625q0.546875 -0.453125 1.375 -0.453125q0.625 0 1.078125 0.25q0.46875 0.234375 0.765625 0.703125q0.3125 0.46875 0.484375 1.140625q0.171875 0.671875 0.171875 1.796875q0 1.34375 -0.28125 2.171875q-0.28125 0.828125 -0.828125 1.28125q-0.546875 0.4375 -1.390625 0.4375q-1.09375 0 -1.71875 -0.78125q-0.765625 -0.953125 -0.765625 -3.109375zm0.96875 0q0 1.875 0.4375 2.5q0.4375 0.625 1.078125 0.625q0.65625 0 1.09375 -0.625q0.4375 -0.625 0.4375 -2.5q0 -1.875 -0.4375 -2.5q-0.4375 -0.625 -1.09375 -0.625q-0.640625 0 -1.03125 0.546875q-0.484375 0.703125 -0.484375 2.578125zm5.145233 -2.03125q0 -0.8125 0.40625 -1.390625q0.40625 -0.578125 1.1875 -0.578125q0.71875 0 1.1875 0.515625q0.46875 0.515625 0.46875 1.515625q0 0.96875 -0.484375 1.5q-0.46875 0.515625 -1.15625 0.515625q-0.6875 0 -1.15625 -0.515625q-0.453125 -0.515625 -0.453125 -1.5625zm1.625 -1.3125q-0.34375 0 -0.578125 0.296875q-0.234375 0.296875 -0.234375 1.109375q0 0.734375 0.234375 1.03125q0.234375 0.296875 0.578125 0.296875q0.359375 0 0.578125 -0.296875q0.234375 -0.296875 0.234375 -1.109375q0 -0.734375 -0.234375 -1.03125q-0.234375 -0.296875 -0.578125 -0.296875zm0 7.390625l4.171875 -8.046875l0.765625 0l-4.15625 8.046875l-0.78125 0zm3.296875 -2.078125q0 -0.8125 0.40625 -1.375q0.421875 -0.578125 1.203125 -0.578125q0.71875 0 1.1875 0.515625q0.46875 0.515625 0.46875 1.5q0 0.96875 -0.46875 1.5q-0.46875 0.515625 -1.171875 0.515625q-0.703125 0 -1.171875 -0.515625q-0.453125 -0.515625 -0.453125 -1.5625zm1.640625 -1.3125q-0.359375 0 -0.59375 0.3125q-0.21875 0.296875 -0.21875 1.09375q0 0.734375 0.234375 1.046875q0.234375 0.296875 0.578125 0.296875q0.359375 0 0.578125 -0.296875q0.234375 -0.3125 0.234375 -1.109375q0 -0.75 -0.234375 -1.046875q-0.234375 -0.296875 -0.578125 -0.296875z" fill-rule="nonzero"/><path fill="#000000" fill-opacity="0.0" d="m337.28085 45.132545l43.307068 0l0 23.811028l-43.307068 0z" fill-rule="evenodd"/><path fill="#000000" d="m353.5672 51.417946l-0.921875 0.078125q-0.125 -0.546875 -0.359375 -0.796875q-0.375 -0.40625 -0.9375 -0.40625q-0.4375 0 -0.78125 0.25q-0.4375 0.328125 -0.703125 0.953125q-0.25 0.609375 -0.265625 1.75q0.34375 -0.515625 0.828125 -0.765625q0.5 -0.25 1.03125 -0.25q0.9375 0 1.59375 0.703125q0.65625 0.6875 0.65625 1.765625q0 0.71875 -0.3125 1.34375q-0.3125 0.609375 -0.859375 0.9375q-0.53125 0.328125 -1.21875 0.328125q-1.171875 0 -1.90625 -0.859375q-0.734375 -0.859375 -0.734375 -2.828125q0 -2.21875 0.8125 -3.21875q0.71875 -0.875 1.921875 -0.875q0.890625 0 1.46875 0.5q0.578125 0.5 0.6875 1.390625zm-3.8125 3.296875q0 0.484375 0.203125 0.921875q0.203125 0.4375 0.5625 0.671875q0.375 0.234375 0.78125 0.234375q0.59375 0 1.015625 -0.46875q0.4375 -0.484375 0.4375 -1.3125q0 -0.78125 -0.421875 -1.234375q-0.421875 -0.46875 -1.0625 -0.46875q-0.640625 0 -1.078125 0.46875q-0.4375 0.453125 -0.4375 1.1875zm4.8796387 -1.296875q0 -1.34375 0.28125 -2.171875q0.28125 -0.828125 0.828125 -1.265625q0.546875 -0.453125 1.375 -0.453125q0.625 0 1.078125 0.25q0.46875 0.234375 0.765625 0.703125q0.3125 0.46875 0.484375 1.140625q0.171875 0.671875 0.171875 1.796875q0 1.34375 -0.28125 2.171875q-0.28125 0.828125 -0.828125 1.28125q-0.546875 0.4375 -1.390625 0.4375q-1.09375 0 -1.71875 -0.78125q-0.765625 -0.953125 -0.765625 -3.109375zm0.96875 0q0 1.875 0.4375 2.5q0.4375 0.625 1.078125 0.625q0.65625 0 1.09375 -0.625q0.4375 -0.625 0.4375 -2.5q0 -1.875 -0.4375 -2.5q-0.4375 -0.625 -1.09375 -0.625q-0.640625 0 -1.03125 0.546875q-0.484375 0.703125 -0.484375 2.578125zm5.145233 -2.03125q0 -0.8125 0.40625 -1.390625q0.40625 -0.578125 1.1875 -0.578125q0.71875 0 1.1875 0.515625q0.46875 0.515625 0.46875 1.515625q0 0.96875 -0.484375 1.5q-0.46875 0.515625 -1.15625 0.515625q-0.6875 0 -1.15625 -0.515625q-0.453125 -0.515625 -0.453125 -1.5625zm1.625 -1.3125q-0.34375 0 -0.578125 0.296875q-0.234375 0.296875 -0.234375 1.109375q0 0.734375 0.234375 1.03125q0.234375 0.296875 0.578125 0.296875q0.359375 0 0.578125 -0.296875q0.234375 -0.296875 0.234375 -1.109375q0 -0.734375 -0.234375 -1.03125q-0.234375 -0.296875 -0.578125 -0.296875zm0 7.390625l4.171875 -8.046875l0.765625 0l-4.15625 8.046875l-0.78125 0zm3.296875 -2.078125q0 -0.8125 0.40625 -1.375q0.421875 -0.578125 1.203125 -0.578125q0.71875 0 1.1875 0.515625q0.46875 0.515625 0.46875 1.5q0 0.96875 -0.46875 1.5q-0.46875 0.515625 -1.171875 0.515625q-0.703125 0 -1.171875 -0.515625q-0.453125 -0.515625 -0.453125 -1.5625zm1.640625 -1.3125q-0.359375 0 -0.59375 0.3125q-0.21875 0.296875 -0.21875 1.09375q0 0.734375 0.234375 1.046875q0.234375 0.296875 0.578125 0.296875q0.359375 0 0.578125 -0.296875q0.234375 -0.3125 0.234375 -1.109375q0 -0.75 -0.234375 -1.046875q-0.234375 -0.296875 -0.578125 -0.296875z" fill-rule="nonzero"/><path fill="#000000" fill-opacity="0.0" d="m395.31366 45.132545l43.307068 0l0 23.811028l-43.307068 0z" fill-rule="evenodd"/><path fill="#000000" d="m406.80313 50.55857l0 -0.90625l4.9375 0l0 0.734375q-0.71875 0.765625 -1.4375 2.0625q-0.71875 1.28125 -1.109375 2.640625q-0.28125 0.953125 -0.359375 2.09375l-0.953125 0q0.015625 -0.90625 0.34375 -2.171875q0.34375 -1.28125 0.96875 -2.453125q0.640625 -1.1875 1.34375 -2.0l-3.734375 0zm5.8640137 2.859375q0 -1.34375 0.28125 -2.171875q0.28125 -0.828125 0.828125 -1.265625q0.546875 -0.453125 1.375 -0.453125q0.625 0 1.078125 0.25q0.46875 0.234375 0.765625 0.703125q0.3125 0.46875 0.484375 1.140625q0.171875 0.671875 0.171875 1.796875q0 1.34375 -0.28125 2.171875q-0.28125 0.828125 -0.828125 1.28125q-0.546875 0.4375 -1.390625 0.4375q-1.09375 0 -1.71875 -0.78125q-0.765625 -0.953125 -0.765625 -3.109375zm0.96875 0q0 1.875 0.4375 2.5q0.4375 0.625 1.078125 0.625q0.65625 0 1.09375 -0.625q0.4375 -0.625 0.4375 -2.5q0 -1.875 -0.4375 -2.5q-0.4375 -0.625 -1.09375 -0.625q-0.640625 0 -1.03125 0.546875q-0.484375 0.703125 -0.484375 2.578125zm5.145233 -2.03125q0 -0.8125 0.40625 -1.390625q0.40625 -0.578125 1.1875 -0.578125q0.71875 0 1.1875 0.515625q0.46875 0.515625 0.46875 1.515625q0 0.96875 -0.484375 1.5q-0.46875 0.515625 -1.15625 0.515625q-0.6875 0 -1.15625 -0.515625q-0.453125 -0.515625 -0.453125 -1.5625zm1.625 -1.3125q-0.34375 0 -0.578125 0.296875q-0.234375 0.296875 -0.234375 1.109375q0 0.734375 0.234375 1.03125q0.234375 0.296875 0.578125 0.296875q0.359375 0 0.578125 -0.296875q0.234375 -0.296875 0.234375 -1.109375q0 -0.734375 -0.234375 -1.03125q-0.234375 -0.296875 -0.578125 -0.296875zm0 7.390625l4.171875 -8.046875l0.765625 0l-4.15625 8.046875l-0.78125 0zm3.296875 -2.078125q0 -0.8125 0.40625 -1.375q0.421875 -0.578125 1.203125 -0.578125q0.71875 0 1.1875 0.515625q0.46875 0.515625 0.46875 1.5q0 0.96875 -0.46875 1.5q-0.46875 0.515625 -1.171875 0.515625q-0.703125 0 -1.171875 -0.515625q-0.453125 -0.515625 -0.453125 -1.5625zm1.640625 -1.3125q-0.359375 0 -0.59375 0.3125q-0.21875 0.296875 -0.21875 1.09375q0 0.734375 0.234375 1.046875q0.234375 0.296875 0.578125 0.296875q0.359375 0 0.578125 -0.296875q0.234375 -0.3125 0.234375 -1.109375q0 -0.75 -0.234375 -1.046875q-0.234375 -0.296875 -0.578125 -0.296875z" fill-rule="nonzero"/><path fill="#000000" fill-opacity="0.0" d="m453.34647 45.132545l43.307068 0l0 23.811028l-43.307068 0z" fill-rule="evenodd"/><path fill="#000000" d="m466.22656 53.042946q-0.59375 -0.203125 -0.875 -0.59375q-0.28125 -0.40625 -0.28125 -0.953125q0 -0.84375 0.59375 -1.40625q0.609375 -0.5625 1.59375 -0.5625q1.0 0 1.609375 0.578125q0.609375 0.578125 0.609375 1.40625q0 0.53125 -0.28125 0.9375q-0.265625 0.390625 -0.84375 0.59375q0.703125 0.234375 1.0625 0.75q0.375 0.5 0.375 1.203125q0 0.984375 -0.6875 1.65625q-0.6875 0.65625 -1.828125 0.65625q-1.125 0 -1.8125 -0.65625q-0.6875 -0.671875 -0.6875 -1.671875q0 -0.75 0.375 -1.25q0.375 -0.5 1.078125 -0.6875zm-0.1875 -1.578125q0 0.53125 0.34375 0.875q0.34375 0.34375 0.90625 0.34375q0.53125 0 0.875 -0.328125q0.359375 -0.34375 0.359375 -0.84375q0 -0.515625 -0.359375 -0.859375q-0.359375 -0.359375 -0.890625 -0.359375q-0.53125 0 -0.890625 0.34375q-0.34375 0.34375 -0.34375 0.828125zm-0.3125 3.515625q0 0.40625 0.1875 0.78125q0.203125 0.375 0.578125 0.578125q0.375 0.203125 0.796875 0.203125q0.671875 0 1.109375 -0.421875q0.4375 -0.4375 0.4375 -1.109375q0 -0.671875 -0.453125 -1.109375q-0.453125 -0.453125 -1.125 -0.453125q-0.65625 0 -1.09375 0.4375q-0.4375 0.4375 -0.4375 1.09375zm4.9733887 -1.5625q0 -1.34375 0.28125 -2.171875q0.28125 -0.828125 0.828125 -1.265625q0.546875 -0.453125 1.375 -0.453125q0.625 0 1.078125 0.25q0.46875 0.234375 0.765625 0.703125q0.3125 0.46875 0.484375 1.140625q0.171875 0.671875 0.171875 1.796875q0 1.34375 -0.28125 2.171875q-0.28125 0.828125 -0.828125 1.28125q-0.546875 0.4375 -1.390625 0.4375q-1.09375 0 -1.71875 -0.78125q-0.765625 -0.953125 -0.765625 -3.109375zm0.96875 0q0 1.875 0.4375 2.5q0.4375 0.625 1.078125 0.625q0.65625 0 1.09375 -0.625q0.4375 -0.625 0.4375 -2.5q0 -1.875 -0.4375 -2.5q-0.4375 -0.625 -1.09375 -0.625q-0.640625 0 -1.03125 0.546875q-0.484375 0.703125 -0.484375 2.578125zm5.145233 -2.03125q0 -0.8125 0.40625 -1.390625q0.40625 -0.578125 1.1875 -0.578125q0.71875 0 1.1875 0.515625q0.46875 0.515625 0.46875 1.515625q0 0.96875 -0.484375 1.5q-0.46875 0.515625 -1.15625 0.515625q-0.6875 0 -1.15625 -0.515625q-0.453125 -0.515625 -0.453125 -1.5625zm1.625 -1.3125q-0.34375 0 -0.578125 0.296875q-0.234375 0.296875 -0.234375 1.109375q0 0.734375 0.234375 1.03125q0.234375 0.296875 0.578125 0.296875q0.359375 0 0.578125 -0.296875q0.234375 -0.296875 0.234375 -1.109375q0 -0.734375 -0.234375 -1.03125q-0.234375 -0.296875 -0.578125 -0.296875zm0 7.390625l4.171875 -8.046875l0.765625 0l-4.15625 8.046875l-0.78125 0zm3.296875 -2.078125q0 -0.8125 0.40625 -1.375q0.421875 -0.578125 1.203125 -0.578125q0.71875 0 1.1875 0.515625q0.46875 0.515625 0.46875 1.5q0 0.96875 -0.46875 1.5q-0.46875 0.515625 -1.171875 0.515625q-0.703125 0 -1.171875 -0.515625q-0.453125 -0.515625 -0.453125 -1.5625zm1.640625 -1.3125q-0.359375 0 -0.59375 0.3125q-0.21875 0.296875 -0.21875 1.09375q0 0.734375 0.234375 1.046875q0.234375 0.296875 0.578125 0.296875q0.359375 0 0.578125 -0.296875q0.234375 -0.3125 0.234375 -1.109375q0 -0.75 -0.234375 -1.046875q-0.234375 -0.296875 -0.578125 -0.296875z" fill-rule="nonzero"/><path fill="#000000" fill-opacity="0.0" d="m511.37927 45.132545l43.307068 0l0 23.811028l-43.307068 0z" fill-rule="evenodd"/><path fill="#000000" d="m522.9469 55.417946l0.90625 -0.078125q0.109375 0.625 0.4375 0.921875q0.328125 0.28125 0.828125 0.28125q0.421875 0 0.75 -0.1875q0.328125 -0.203125 0.53125 -0.53125q0.21875 -0.34375 0.359375 -0.890625q0.140625 -0.5625 0.140625 -1.15625q0 -0.0625 -0.015625 -0.1875q-0.28125 0.453125 -0.765625 0.734375q-0.484375 0.265625 -1.046875 0.265625q-0.953125 0 -1.609375 -0.671875q-0.65625 -0.6875 -0.65625 -1.8125q0 -1.171875 0.6875 -1.875q0.6875 -0.703125 1.71875 -0.703125q0.734375 0 1.34375 0.40625q0.625 0.390625 0.9375 1.140625q0.328125 0.734375 0.328125 2.140625q0 1.453125 -0.3125 2.328125q-0.3125 0.859375 -0.953125 1.3125q-0.625 0.453125 -1.46875 0.453125q-0.890625 0 -1.453125 -0.484375q-0.5625 -0.5 -0.6875 -1.40625zm3.84375 -3.359375q0 -0.8125 -0.4375 -1.28125q-0.421875 -0.484375 -1.03125 -0.484375q-0.625 0 -1.09375 0.515625q-0.453125 0.515625 -0.453125 1.328125q0 0.71875 0.4375 1.1875q0.4375 0.453125 1.078125 0.453125q0.65625 0 1.078125 -0.453125q0.421875 -0.46875 0.421875 -1.265625zm1.9420776 1.359375q0 -1.34375 0.28125 -2.171875q0.28125 -0.828125 0.828125 -1.265625q0.546875 -0.453125 1.375 -0.453125q0.625 0 1.078125 0.25q0.46875 0.234375 0.765625 0.703125q0.3125 0.46875 0.484375 1.140625q0.171875 0.671875 0.171875 1.796875q0 1.34375 -0.28125 2.171875q-0.28125 0.828125 -0.828125 1.28125q-0.546875 0.4375 -1.390625 0.4375q-1.09375 0 -1.71875 -0.78125q-0.765625 -0.953125 -0.765625 -3.109375zm0.96875 0q0 1.875 0.4375 2.5q0.4375 0.625 1.078125 0.625q0.65625 0 1.09375 -0.625q0.4375 -0.625 0.4375 -2.5q0 -1.875 -0.4375 -2.5q-0.4375 -0.625 -1.09375 -0.625q-0.640625 0 -1.03125 0.546875q-0.484375 0.703125 -0.484375 2.578125zm5.1452637 -2.03125q0 -0.8125 0.40625 -1.390625q0.40625 -0.578125 1.1875 -0.578125q0.71875 0 1.1875 0.515625q0.46875 0.515625 0.46875 1.515625q0 0.96875 -0.484375 1.5q-0.46875 0.515625 -1.15625 0.515625q-0.6875 0 -1.15625 -0.515625q-0.453125 -0.515625 -0.453125 -1.5625zm1.625 -1.3125q-0.34375 0 -0.578125 0.296875q-0.234375 0.296875 -0.234375 1.109375q0 0.734375 0.234375 1.03125q0.234375 0.296875 0.578125 0.296875q0.359375 0 0.578125 -0.296875q0.234375 -0.296875 0.234375 -1.109375q0 -0.734375 -0.234375 -1.03125q-0.234375 -0.296875 -0.578125 -0.296875zm0 7.390625l4.171875 -8.046875l0.765625 0l-4.15625 8.046875l-0.78125 0zm3.296875 -2.078125q0 -0.8125 0.40625 -1.375q0.421875 -0.578125 1.203125 -0.578125q0.71875 0 1.1875 0.515625q0.46875 0.515625 0.46875 1.5q0 0.96875 -0.46875 1.5q-0.46875 0.515625 -1.171875 0.515625q-0.703125 0 -1.171875 -0.515625q-0.453125 -0.515625 -0.453125 -1.5625zm1.640625 -1.3125q-0.359375 0 -0.59375 0.3125q-0.21875 0.296875 -0.21875 1.09375q0 0.734375 0.234375 1.046875q0.234375 0.296875 0.578125 0.296875q0.359375 0 0.578125 -0.296875q0.234375 -0.3125 0.234375 -1.109375q0 -0.75 -0.234375 -1.046875q-0.234375 -0.296875 -0.578125 -0.296875z" fill-rule="nonzero"/><path fill="#000000" fill-opacity="0.0" d="m561.61945 45.132545l48.724365 0l0 23.811028l-48.724365 0z" fill-rule="evenodd"/><path fill="#000000" d="m576.32306 57.18357l-0.9375 0l0 -5.96875q-0.34375 0.328125 -0.890625 0.65625q-0.546875 0.3125 -0.984375 0.46875l0 -0.90625q0.796875 -0.359375 1.375 -0.890625q0.59375 -0.53125 0.828125 -1.015625l0.609375 0l0 7.65625zm2.3952637 -3.765625q0 -1.34375 0.28125 -2.171875q0.28125 -0.828125 0.828125 -1.265625q0.546875 -0.453125 1.375 -0.453125q0.625 0 1.078125 0.25q0.46875 0.234375 0.765625 0.703125q0.3125 0.46875 0.484375 1.140625q0.171875 0.671875 0.171875 1.796875q0 1.34375 -0.28125 2.171875q-0.28125 0.828125 -0.828125 1.28125q-0.546875 0.4375 -1.390625 0.4375q-1.09375 0 -1.71875 -0.78125q-0.765625 -0.953125 -0.765625 -3.109375zm0.96875 0q0 1.875 0.4375 2.5q0.4375 0.625 1.078125 0.625q0.65625 0 1.09375 -0.625q0.4375 -0.625 0.4375 -2.5q0 -1.875 -0.4375 -2.5q-0.4375 -0.625 -1.09375 -0.625q-0.640625 0 -1.03125 0.546875q-0.484375 0.703125 -0.484375 2.578125zm4.9577637 0q0 -1.34375 0.28125 -2.171875q0.28125 -0.828125 0.828125 -1.265625q0.546875 -0.453125 1.375 -0.453125q0.625 0 1.078125 0.25q0.46875 0.234375 0.765625 0.703125q0.3125 0.46875 0.484375 1.140625q0.171875 0.671875 0.171875 1.796875q0 1.34375 -0.28125 2.171875q-0.28125 0.828125 -0.828125 1.28125q-0.546875 0.4375 -1.390625 0.4375q-1.09375 0 -1.71875 -0.78125q-0.765625 -0.953125 -0.765625 -3.109375zm0.96875 0q0 1.875 0.4375 2.5q0.4375 0.625 1.078125 0.625q0.65625 0 1.09375 -0.625q0.4375 -0.625 0.4375 -2.5q0 -1.875 -0.4375 -2.5q-0.4375 -0.625 -1.09375 -0.625q-0.640625 0 -1.03125 0.546875q-0.484375 0.703125 -0.484375 2.578125zm5.1452026 -2.03125q0 -0.8125 0.40625 -1.390625q0.40625 -0.578125 1.1875 -0.578125q0.71875 0 1.1875 0.515625q0.46875 0.515625 0.46875 1.515625q0 0.96875 -0.484375 1.5q-0.46875 0.515625 -1.15625 0.515625q-0.6875 0 -1.15625 -0.515625q-0.453125 -0.515625 -0.453125 -1.5625zm1.625 -1.3125q-0.34375 0 -0.578125 0.296875q-0.234375 0.296875 -0.234375 1.109375q0 0.734375 0.234375 1.03125q0.234375 0.296875 0.578125 0.296875q0.359375 0 0.578125 -0.296875q0.234375 -0.296875 0.234375 -1.109375q0 -0.734375 -0.234375 -1.03125q-0.234375 -0.296875 -0.578125 -0.296875zm0 7.390625l4.171875 -8.046875l0.765625 0l-4.15625 8.046875l-0.78125 0zm3.296875 -2.078125q0 -0.8125 0.40625 -1.375q0.421875 -0.578125 1.203125 -0.578125q0.71875 0 1.1875 0.515625q0.46875 0.515625 0.46875 1.5q0 0.96875 -0.46875 1.5q-0.46875 0.515625 -1.171875 0.515625q-0.703125 0 -1.171875 -0.515625q-0.453125 -0.515625 -0.453125 -1.5625zm1.640625 -1.3125q-0.359375 0 -0.59375 0.3125q-0.21875 0.296875 -0.21875 1.09375q0 0.734375 0.234375 1.046875q0.234375 0.296875 0.578125 0.296875q0.359375 0 0.578125 -0.296875q0.234375 -0.3125 0.234375 -1.109375q0 -0.75 -0.234375 -1.046875q-0.234375 -0.296875 -0.578125 -0.296875z" fill-rule="nonzero"/><defs><linearGradient id="p.1" gradientUnits="userSpaceOnUse" gradientTransform="matrix(4.87973397047932 0.0 0.0 4.87973397047932 0.0 0.0)" spreadMethod="pad" x1="25.719959825486537" y1="0.3744679525757947" x2="25.719943016988807" y2="5.254201923026167"><stop offset="0.0" stop-color="#dfe9fb"/><stop offset="1.0" stop-color="#6e9be7"/></linearGradient></defs><path fill="url(#p.1)" d="m125.50656 1.828084l215.46457 0l0 23.811024l-215.46457 0z" fill-rule="evenodd"/><path fill="#000000" d="m218.86385 19.593594l0 -11.453124l2.28125 0l2.71875 8.109374q0.375 1.125 0.546875 1.6875q0.1875 -0.625 0.609375 -1.828125l2.734375 -7.968749l2.046875 0l0 11.453124l-1.46875 0l0 -9.593749l-3.328125 9.593749l-1.359375 0l-3.3125 -9.749999l0 9.749999l-1.46875 0zm18.875 -2.671875l1.453125 0.171875q-0.34375 1.28125 -1.28125 1.984375q-0.921875 0.703125 -2.359375 0.703125q-1.828125 0 -2.890625 -1.125q-1.0625 -1.125 -1.0625 -3.140624q0 -2.09375 1.078125 -3.25q1.078125 -1.15625 2.796875 -1.15625q1.65625 0 2.703125 1.140625q1.0625 1.125 1.0625 3.171875q0 0.125 0 0.375l-6.1875 0q0.078125 1.374999 0.765625 2.109374q0.703125 0.71875 1.734375 0.71875q0.78125 0 1.328125 -0.40625q0.546875 -0.40625 0.859375 -1.296875zm-4.609375 -2.281249l4.625 0q-0.09375 -1.046875 -0.53125 -1.5625q-0.671875 -0.8125 -1.734375 -0.8125q-0.96875 0 -1.640625 0.65625q-0.65625 0.640625 -0.71875 1.71875zm7.8359375 4.953124l0 -8.296874l1.265625 0l0 1.171875q0.90625 -1.359375 2.640625 -1.359375q0.75 0 1.375 0.265625q0.625 0.265625 0.9375 0.703125q0.3125 0.4375 0.4375 1.046875q0.078125 0.390625 0.078125 1.359375l0 5.109374l-1.40625 0l0 -5.046874q0 -0.859375 -0.171875 -1.28125q-0.15625 -0.4375 -0.578125 -0.6875q-0.40625 -0.25 -0.96875 -0.25q-0.90625 0 -1.5625 0.578125q-0.640625 0.5625 -0.640625 2.15625l0 4.531249l-1.40625 0z" fill-rule="nonzero"/><defs><linearGradient id="p.2" gradientUnits="userSpaceOnUse" gradientTransform="matrix(4.879751747403037 0.0 0.0 4.879751747403037 0.0 0.0)" spreadMethod="pad" x1="14.004520355678867" y1="15.23846759908036" x2="14.004503547242368" y2="20.11821934645445"><stop offset="0.0" stop-color="#f5d0d0"/><stop offset="1.0" stop-color="#d96868"/></linearGradient></defs><path fill="url(#p.2)" d="m68.338585 74.36089l262.86612 0l0 23.81102l-262.86612 0z" fill-rule="evenodd"/><path fill="#000000" d="m175.58806 92.1264l-3.03125 -11.453125l1.546875 0l1.75 7.5q0.28125 1.1875 0.484375 2.34375q0.4375 -1.828125 0.515625 -2.109375l2.171875 -7.734375l1.828125 0l1.640625 5.796875q0.625 2.15625 0.890625 4.046875q0.21875 -1.078125 0.578125 -2.484375l1.796875 -7.359375l1.515625 0l-3.140625 11.453125l-1.453125 0l-2.421875 -8.734375q-0.296875 -1.09375 -0.359375 -1.34375q-0.171875 0.796875 -0.328125 1.34375l-2.4375 8.734375l-1.546875 0zm12.109375 -4.15625q0 -2.296875 1.28125 -3.40625q1.078125 -0.921875 2.609375 -0.921875q1.71875 0 2.796875 1.125q1.09375 1.109375 1.09375 3.09375q0 1.59375 -0.484375 2.515625q-0.484375 0.921875 -1.40625 1.4375q-0.90625 0.5 -2.0 0.5q-1.734375 0 -2.8125 -1.109375q-1.078125 -1.125 -1.078125 -3.234375zm1.453125 0q0 1.59375 0.6875 2.390625q0.703125 0.796875 1.75 0.796875q1.046875 0 1.734375 -0.796875q0.703125 -0.796875 0.703125 -2.4375q0 -1.53125 -0.703125 -2.328125q-0.6875 -0.796875 -1.734375 -0.796875q-1.046875 0 -1.75 0.796875q-0.6875 0.78125 -0.6875 2.375zm7.9765625 4.15625l0 -8.296875l1.25 0l0 1.15625q0.390625 -0.609375 1.03125 -0.96875q0.65625 -0.375 1.484375 -0.375q0.921875 0 1.515625 0.390625q0.59375 0.375 0.828125 1.0625q0.984375 -1.453125 2.5625 -1.453125q1.234375 0 1.890625 0.6875q0.671875 0.671875 0.671875 2.09375l0 5.703125l-1.390625 0l0 -5.234375q0 -0.84375 -0.140625 -1.203125q-0.140625 -0.375 -0.5 -0.59375q-0.359375 -0.234375 -0.84375 -0.234375q-0.875 0 -1.453125 0.578125q-0.578125 0.578125 -0.578125 1.859375l0 4.828125l-1.40625 0l0 -5.390625q0 -0.9375 -0.34375 -1.40625q-0.34375 -0.46875 -1.125 -0.46875q-0.59375 0 -1.09375 0.3125q-0.5 0.3125 -0.734375 0.921875q-0.21875 0.59375 -0.21875 1.71875l0 4.3125l-1.40625 0zm19.0 -2.671875l1.453125 0.171875q-0.34375 1.28125 -1.28125 1.984375q-0.921875 0.703125 -2.359375 0.703125q-1.828125 0 -2.890625 -1.125q-1.0625 -1.125 -1.0625 -3.140625q0 -2.09375 1.078125 -3.25q1.078125 -1.15625 2.796875 -1.15625q1.65625 0 2.703125 1.140625q1.0625 1.125 1.0625 3.171875q0 0.125 0 0.375l-6.1875 0q0.078125 1.375 0.765625 2.109375q0.703125 0.71875 1.734375 0.71875q0.78125 0 1.328125 -0.40625q0.546875 -0.40625 0.859375 -1.296875zm-4.609375 -2.28125l4.625 0q-0.09375 -1.046875 -0.53125 -1.5625q-0.671875 -0.8125 -1.734375 -0.8125q-0.96875 0 -1.640625 0.65625q-0.65625 0.640625 -0.71875 1.71875zm7.8359375 4.953125l0 -8.296875l1.265625 0l0 1.171875q0.90625 -1.359375 2.640625 -1.359375q0.75 0 1.375 0.265625q0.625 0.265625 0.9375 0.703125q0.3125 0.4375 0.4375 1.046875q0.078125 0.390625 0.078125 1.359375l0 5.109375l-1.40625 0l0 -5.046875q0 -0.859375 -0.171875 -1.28125q-0.15625 -0.4375 -0.578125 -0.6875q-0.40625 -0.25 -0.96875 -0.25q-0.90625 0 -1.5625 0.578125q-0.640625 0.5625 -0.640625 2.15625l0 4.53125l-1.40625 0z" fill-rule="nonzero"/></g></svg>